# xmcd
# Copyright (C) 1995-1998 Ti Kan
#
# Track frame offsets:
#       150
#       16408
#       34109
#       48464
#       60268
#       79004
#       94175
#       106830
#       122471
#       139461
#       154062
#       170408
#
# Disc length: 2801 seconds
#
# Revision: 2
# Processed by: cddbd v1.5.1PL0 Copyright (c) Steve Scherf et al.
# Submitted via: CD-Transfer v1.0
#
DISCID=910aef0c
DTITLE=Vivian - Don't Look Down
DYEAR=2005
DGENRE=
TTITLE0=Fair Is Fair
TTITLE1=Be Your Man
TTITLE2=C'mon C'mon
TTITLE3=Flash Gordon
TTITLE4=None Of These Days
TTITLE5=It's So Funny
TTITLE6=The End Or Someting New
TTITLE7=Deep
TTITLE8=What's Your Problem
TTITLE9=Anybody Out There
TTITLE10=Don't Look Down
TTITLE11=Sometimes
EXTD=
EXTT0=
EXTT1=
EXTT2=
EXTT3=
EXTT4=
EXTT5=
EXTT6=
EXTT7=
EXTT8=
EXTT9=
EXTT10=
EXTT11=
PLAYORDER=
